<mxfile host="app.diagrams.net" agent="Mozilla/5.0 (Macintosh; Intel Mac OS X 10_15_7) AppleWebKit/537.36 (KHTML, like Gecko) Chrome/135.0.0.0 Safari/537.36" version="26.2.9">
  <diagram name="ApiGateway" id="lrhSs4NIBuE15-ALr9kW">
    <mxGraphModel dx="1763" dy="2375" grid="1" gridSize="10" guides="1" tooltips="1" connect="1" arrows="1" fold="1" page="1" pageScale="1" pageWidth="1654" pageHeight="1169" math="0" shadow="0">
      <root>
        <mxCell id="0" />
        <mxCell id="1" parent="0" />
        <mxCell id="qK_jUNQq7bJrc278mB2J-1" value="API Gateway 1" style="swimlane;" vertex="1" parent="1">
          <mxGeometry x="610" y="-1046" width="416" height="180" as="geometry" />
        </mxCell>
        <mxCell id="qK_jUNQq7bJrc278mB2J-2" value="Inbound" style="html=1;outlineConnect=0;whiteSpace=wrap;fillColor=#fff2cc;shape=mxgraph.archimate3.application;appType=comp;archiType=rounded;strokeColor=#d6b656;verticalAlign=middle;fontStyle=0" vertex="1" parent="qK_jUNQq7bJrc278mB2J-1">
          <mxGeometry x="14" y="37" width="170" height="121" as="geometry" />
        </mxCell>
        <mxCell id="qK_jUNQq7bJrc278mB2J-3" value="Outbound" style="html=1;outlineConnect=0;whiteSpace=wrap;fillColor=#fff2cc;shape=mxgraph.archimate3.application;appType=comp;archiType=rounded;strokeColor=#d6b656;verticalAlign=middle;fontStyle=0" vertex="1" parent="qK_jUNQq7bJrc278mB2J-1">
          <mxGeometry x="228" y="37" width="170" height="121" as="geometry" />
        </mxCell>
        <mxCell id="qK_jUNQq7bJrc278mB2J-4" value="" style="html=1;endArrow=block;dashed=1;elbow=vertical;endFill=1;dashPattern=6 4;rounded=0;fontSize=12;fontStyle=0" edge="1" parent="qK_jUNQq7bJrc278mB2J-1" source="qK_jUNQq7bJrc278mB2J-2" target="qK_jUNQq7bJrc278mB2J-3">
          <mxGeometry width="160" relative="1" as="geometry">
            <mxPoint x="763" y="-106" as="sourcePoint" />
            <mxPoint x="989" y="-54" as="targetPoint" />
          </mxGeometry>
        </mxCell>
        <mxCell id="qK_jUNQq7bJrc278mB2J-5" value="ServiceNow (API Client)" style="swimlane;" vertex="1" parent="1">
          <mxGeometry x="280" y="-1046" width="270" height="180" as="geometry" />
        </mxCell>
        <mxCell id="qK_jUNQq7bJrc278mB2J-6" value="Outbound" style="html=1;outlineConnect=0;whiteSpace=wrap;fillColor=#d5e8d4;shape=mxgraph.archimate3.application;appType=comp;archiType=rounded;strokeColor=#82b366;verticalAlign=top;fontStyle=0" vertex="1" parent="qK_jUNQq7bJrc278mB2J-5">
          <mxGeometry x="50" y="37.5" width="170" height="120" as="geometry" />
        </mxCell>
        <mxCell id="qK_jUNQq7bJrc278mB2J-7" value="Get Issue" style="html=1;outlineConnect=0;whiteSpace=wrap;fillColor=#d5e8d4;shape=mxgraph.archimate3.event;strokeColor=#82b366;fontStyle=0" vertex="1" parent="qK_jUNQq7bJrc278mB2J-5">
          <mxGeometry x="67.5" y="69" width="135" height="57" as="geometry" />
        </mxCell>
        <mxCell id="qK_jUNQq7bJrc278mB2J-8" value="Jira" style="swimlane;" vertex="1" parent="1">
          <mxGeometry x="1105" y="-1050" width="270" height="180" as="geometry" />
        </mxCell>
        <mxCell id="qK_jUNQq7bJrc278mB2J-9" value="Inbound" style="html=1;outlineConnect=0;whiteSpace=wrap;fillColor=#dae8fc;shape=mxgraph.archimate3.application;appType=comp;archiType=rounded;strokeColor=#6c8ebf;verticalAlign=middle;fontStyle=0" vertex="1" parent="qK_jUNQq7bJrc278mB2J-8">
          <mxGeometry x="50" y="37" width="170" height="121" as="geometry" />
        </mxCell>
        <mxCell id="qK_jUNQq7bJrc278mB2J-10" value="" style="edgeStyle=none;rounded=0;orthogonalLoop=1;jettySize=auto;html=1;fontSize=6;fontStyle=0" edge="1" parent="1" source="qK_jUNQq7bJrc278mB2J-7" target="qK_jUNQq7bJrc278mB2J-2">
          <mxGeometry relative="1" as="geometry">
            <mxPoint x="617" y="-1108.5" as="sourcePoint" />
            <mxPoint x="805" y="-1312" as="targetPoint" />
          </mxGeometry>
        </mxCell>
        <mxCell id="qK_jUNQq7bJrc278mB2J-15" value="" style="html=1;endArrow=block;dashed=1;elbow=vertical;endFill=1;dashPattern=6 4;rounded=0;fontSize=12;fontStyle=0" edge="1" parent="1" source="qK_jUNQq7bJrc278mB2J-3" target="qK_jUNQq7bJrc278mB2J-9">
          <mxGeometry width="160" relative="1" as="geometry">
            <mxPoint x="804" y="-938" as="sourcePoint" />
            <mxPoint x="1087" y="-948.5" as="targetPoint" />
          </mxGeometry>
        </mxCell>
      </root>
    </mxGraphModel>
  </diagram>
</mxfile>
